<?xml version="1.0" encoding="UTF-8" standalone="no"?>
<svg
   xmlns:dc="http://purl.org/dc/elements/1.1/"
   xmlns:cc="http://creativecommons.org/ns#"
   xmlns:rdf="http://www.w3.org/1999/02/22-rdf-syntax-ns#"
   xmlns:svg="http://www.w3.org/2000/svg"
   xmlns="http://www.w3.org/2000/svg"
   xmlns:sodipodi="http://sodipodi.sourceforge.net/DTD/sodipodi-0.dtd"
   xmlns:inkscape="http://www.inkscape.org/namespaces/inkscape"
   width="24"
   height="24"
   version="1.1"
   viewBox="0 0 24.026025 23.998013"
   xml:space="preserve"
   id="svg38"
   sodipodi:docname="idle.svg"
   inkscape:version="0.92.2 5c3e80d, 2017-08-06"
   inkscape:export-filename="/Users/mendler/Code/private/timelapse/timelapse/resources/black/stop2.png"
   inkscape:export-xdpi="99.31427"
   inkscape:export-ydpi="99.31427"><metadata
     id="metadata44"><rdf:RDF><cc:Work
         rdf:about=""><dc:format>image/svg+xml</dc:format><dc:type
           rdf:resource="http://purl.org/dc/dcmitype/StillImage" /><dc:title></dc:title></cc:Work></rdf:RDF></metadata><defs
     id="defs42" /><sodipodi:namedview
     pagecolor="#ffffff"
     bordercolor="#666666"
     borderopacity="1"
     objecttolerance="10"
     gridtolerance="10"
     guidetolerance="10"
     inkscape:pageopacity="0"
     inkscape:pageshadow="2"
     inkscape:window-width="1440"
     inkscape:window-height="856"
     id="namedview40"
     showgrid="false"
     inkscape:zoom="13.146497"
     inkscape:cx="18.08609"
     inkscape:cy="8.0455163"
     inkscape:window-x="0"
     inkscape:window-y="0"
     inkscape:window-maximized="0"
     inkscape:current-layer="svg38" /><g
     id="g948"
     transform="matrix(0.05476002,0,0,0.05476002,1.4741251,23.152389)"><path
       style="fill:#ffffff;stroke-width:1.33000004"
       inkscape:connector-curvature="0"
       id="path2"
       d="m 35.3,-154.75436 c -4.2028,0 -8.2327,-1.5428 -11.3715,-4.3491 l -17.423,-15.694 c -3.3915,-3.0191 -5.3998,-7.1953 -5.6525,-11.7306 -0.266,-4.5619 1.2768,-8.9509 4.3225,-12.3424 l 186.2,-207.48 c 3.2319,-3.6043 7.8603,-5.6791 12.7015,-5.6791 4.2161,0 8.2593,1.5428 11.3981,4.3491 l 17.423,15.694 c 3.4048,3.0457 5.4131,7.2352 5.6658,11.7971 0.2394,4.5486 -1.3034,8.911 -4.3358,12.2892 l -186.2,207.48 c -3.2319,3.6043 -7.8736,5.6791 -12.7281,5.6791" /><path
       d="m 208.2,-420.75436 c -5.5993,0 -10.9592,2.394 -14.63,6.5702 l -186.2,207.48 c -3.5378,3.9368 -5.3067,9.0174 -5.0141,14.231 0.2926,5.2535 2.6201,10.0814 6.5436,13.566 l 17.423,15.561 c 3.6309,3.2452 8.2992,5.0274 13.1537,5.0274 5.6126,0 10.9725,-2.394 14.763,-6.5702 l 186.2,-207.48 c 3.5112,-3.9102 5.2934,-8.9642 5.0008,-14.231 -0.2793,-5.2668 -2.6068,-10.108 -6.5436,-13.699 l -17.423,-15.561 c -3.6309,-3.2585 -8.3125,-5.0407 -13.1803,-5.0407 z m 0,5.3466 c 3.4314,0 6.8628,1.21562 9.6159,3.6708 l 17.423,15.561 c 5.9318,5.32 6.4239,14.364 1.1172,20.349 l -186.2,207.48 c -2.8462,3.1787 -6.783,4.788 -10.7331,4.788 -3.4181,0 -6.8362,-1.21163 -9.5893,-3.6708 l -17.423,-15.694 c -5.9318,-5.2934 -6.4239,-14.364 -1.1172,-20.349 l 186.2,-207.48 c 2.8329,-3.1787 6.7564,-4.788 10.7065,-4.788"
       id="path4"
       inkscape:connector-curvature="0"
       style="fill:#080813;fill-opacity:1;stroke:none;stroke-width:1.33000004;stroke-opacity:1" /><path
       d="m 61.9,-181.35436 -23.94,26.733 -17.556,-63.574 23.94,-26.733 17.556,63.574"
       id="path6"
       inkscape:connector-curvature="0"
       style="fill:#000000;fill-opacity:1;stroke-width:1.33000004" /><path
       d="m 115.1,-234.55436 -23.94,26.733 -17.556,-63.574 23.94,-26.733 17.556,63.574"
       id="path8"
       inkscape:connector-curvature="0"
       style="fill:#000000;fill-opacity:1;stroke-width:1.33000004" /><path
       d="m 168.3,-301.05436 -23.94,26.733 -17.556,-63.574 23.94,-26.733 17.556,63.574"
       id="path10"
       inkscape:connector-curvature="0"
       style="fill:#000000;fill-opacity:1;stroke-width:1.33000004" /><path
       d="m 221.5,-354.25436 -23.94,26.733 -17.556,-63.574 23.94,-26.6 17.556,63.574"
       id="path12"
       inkscape:connector-curvature="0"
       style="fill:#000000;fill-opacity:1;stroke-width:1.33000004" /><path
       d="M 35.3,-154.75436 113.105,0.8556364 c 5.6791,11.3315996 19.418,15.9599996 30.856,10.2276996 l 227.43,-113.714996 c 11.3449,-5.6924 15.96,-19.418 10.241,-30.856 l -77.805,-155.61 -268.66,134.33"
       id="path14"
       inkscape:connector-curvature="0"
       style="fill:#0a0a18;fill-opacity:1;stroke-width:1.33000004" /><path
       style="fill:#ffffff;stroke-width:1.33000004"
       inkscape:connector-curvature="0"
       id="path18"
       d="m 48.6,-114.85436 c -0.2793,0 -0.5719,-0.0439 -0.8379,-0.13699 -0.6783,-0.22344 -1.2369,-0.70623 -1.5561,-1.33 l -19.551,-39.102 c -0.665,-1.31936 -0.133,-2.926 1.1837,-3.591 l 267.33,-134.33 c 0.3724,-0.19152 0.7847,-0.28462 1.197,-0.28462 0.2793,0 0.5586,0.0439 0.8379,0.13699 0.6783,0.22477 1.2236,0.70623 1.5428,1.33 l 19.551,39.102 c 0.6517,1.31936 0.1197,2.926 -1.197,3.591 l -267.33,134.33 c -0.3724,0.19019 -0.7847,0.28329 -1.197,0.28329" /><path
       d="m 301.3,-301.05436 c -0.8246,0 -1.6492,0.19152 -2.4073,0.56392 l -267.33,134.33 c -2.6334,1.32601 -3.6974,4.5353 -2.3807,7.182 l 19.551,39.102 c 0.6384,1.27148 1.7423,2.2344 3.0856,2.6866 0.5586,0.1862 1.1305,0.27265 1.6891,0.27265 0.8246,0 1.6492,-0.19152 2.394,-0.56924 l 267.33,-134.33 c 2.6467,-1.32069 3.7107,-4.5353 2.3807,-7.1687 l -19.551,-39.102 c -0.6384,-1.27148 -1.7423,-2.2344 -3.0989,-2.6733 -0.5453,-0.1862 -1.1172,-0.27398 -1.6758,-0.27398 z m 0,5.3466 19.551,39.102 -267.33,134.33 -19.551,-39.102 267.33,-134.33"
       id="path20"
       inkscape:connector-curvature="0"
       style="fill:#0a0a18;fill-opacity:1;stroke-width:1.33000004" /><path
       d="m 88.5,-128.15436 -33.117,16.625 11.3848,-59.717 33.117,-16.625 -11.3582,59.717"
       id="path22"
       inkscape:connector-curvature="0"
       style="fill:#0a0a18;fill-opacity:1;stroke-width:1.33000004" /><path
       d="m 155,-168.05436 -33.117,16.625 11.3848,-59.717 33.117,-16.625 -11.3715,59.717"
       id="path24"
       inkscape:connector-curvature="0"
       style="fill:#0a0a18;fill-opacity:1;stroke-width:1.33000004" /><path
       d="m 221.5,-207.95436 -33.117,16.625 11.3981,-59.717 33.117,-16.625 -11.3848,59.717"
       id="path26"
       inkscape:connector-curvature="0"
       style="fill:#0a0a18;fill-opacity:1;stroke-width:1.33000004" /><path
       d="m 288,-234.55436 -33.117,16.625 11.3981,-59.717 33.117,-16.625 -11.3981,59.717"
       id="path28"
       inkscape:connector-curvature="0"
       style="fill:#0a0a18;fill-opacity:1;stroke-width:1.33000004" /><path
       style="fill:#ffffff;stroke-width:1.33000004"
       inkscape:connector-curvature="0"
       id="path32"
       d="m 314.6,-114.85436 -136.99,68.361996 -40.432,-80.730996 136.99,-68.362 40.432,80.731" /></g></svg>