<?xml version="1.0" encoding="UTF-8" standalone="no"?>
<svg
   xmlns:dc="http://purl.org/dc/elements/1.1/"
   xmlns:cc="http://creativecommons.org/ns#"
   xmlns:rdf="http://www.w3.org/1999/02/22-rdf-syntax-ns#"
   xmlns:svg="http://www.w3.org/2000/svg"
   xmlns="http://www.w3.org/2000/svg"
   xmlns:sodipodi="http://sodipodi.sourceforge.net/DTD/sodipodi-0.dtd"
   xmlns:inkscape="http://www.inkscape.org/namespaces/inkscape"
   width="24"
   height="24"
   version="1.1"
   viewBox="0 0 24.026025 23.998013"
   xml:space="preserve"
   id="svg38"
   sodipodi:docname="recording.svg"
   inkscape:version="0.92.2 5c3e80d, 2017-08-06"
   inkscape:export-filename="/Users/mendler/Code/private/timelapse/timelapse/resources/black/recording.png"
   inkscape:export-xdpi="99.31427"
   inkscape:export-ydpi="99.31427"><metadata
     id="metadata44"><rdf:RDF><cc:Work
         rdf:about=""><dc:format>image/svg+xml</dc:format><dc:type
           rdf:resource="http://purl.org/dc/dcmitype/StillImage" /><dc:title></dc:title></cc:Work></rdf:RDF></metadata><defs
     id="defs42" /><sodipodi:namedview
     pagecolor="#ffffff"
     bordercolor="#666666"
     borderopacity="1"
     objecttolerance="10"
     gridtolerance="10"
     guidetolerance="10"
     inkscape:pageopacity="0"
     inkscape:pageshadow="2"
     inkscape:window-width="1440"
     inkscape:window-height="856"
     id="namedview40"
     showgrid="false"
     inkscape:zoom="12.99416"
     inkscape:cx="6.3832089"
     inkscape:cy="4.3293512"
     inkscape:window-x="0"
     inkscape:window-y="0"
     inkscape:window-maximized="0"
     inkscape:current-layer="svg38"
     inkscape:snap-global="false" /><path
     d="m 3.4071538,14.678037 c -0.2301454,0 -0.4508228,-0.08448 -0.6227036,-0.238157 L 1.8303664,13.580477 C 1.6446478,13.415151 1.5346733,13.186462 1.5208354,12.938109 1.5062692,12.688299 1.590753,12.447957 1.7575356,12.262239 L 11.953851,0.90062968 c 0.176979,-0.19737154 0.43043,-0.31098763 0.695535,-0.31098763 0.230873,0 0.452279,0.0844838 0.62416,0.23815681 L 14.22763,1.6872026 c 0.186447,0.1667826 0.296421,0.3961997 0.310259,0.6460094 0.01311,0.2490815 -0.07137,0.4879666 -0.237428,0.6729569 L 4.1041448,14.367778 c -0.1769789,0.197371 -0.4311585,0.310987 -0.696991,0.310987"
     id="path2"
     inkscape:connector-curvature="0"
     style="fill:#ffffff;stroke-width:0.07283083" /><g
     id="g875"
     transform="rotate(20.243587,5.5053859,11.887328)"><path
       d="m 12.875161,0.11187183 c -0.306618,0 -0.600126,0.13109549 -0.801139,0.35978428 L 1.8777064,11.833265 c -0.19373,0.215579 -0.290595,0.493793 -0.2745722,0.77929 0.016023,0.287682 0.1434768,0.552058 0.3583277,0.742874 l 0.9540838,0.852121 c 0.1988282,0.177707 0.4544644,0.275301 0.7202969,0.275301 0.3073461,0 0.6008543,-0.131096 0.8084222,-0.359785 L 14.640581,2.7614573 C 14.832854,2.5473347 14.930447,2.2705775 14.914424,1.9821675 14.89913,1.6937574 14.771676,1.4286532 14.556097,1.2320099 L 13.602013,0.37988927 C 13.403185,0.20145375 13.14682,0.10386044 12.880259,0.10386044 Z m 0,0.29277992 c 0.187904,0 0.375807,0.0665674 0.526567,0.20101309 l 0.954084,0.85212066 c 0.324825,0.2913233 0.351773,0.7865729 0.06118,1.1143117 L 4.2206741,13.933706 c -0.1558579,0.174066 -0.3714372,0.262191 -0.5877447,0.262191 -0.1871753,0 -0.3743505,-0.06635 -0.5251103,-0.201013 L 2.1537353,13.13548 C 1.8289098,12.845614 1.8019624,12.348907 2.0925574,12.021169 L 12.288873,0.65955965 c 0.15513,-0.17406568 0.369981,-0.26219098 0.586288,-0.26219098"
       id="path4"
       inkscape:connector-curvature="0"
       style="fill:#080813;fill-opacity:1;stroke:none;stroke-width:0.07283083;stroke-opacity:1" /><path
       d="M 4.8637703,13.221421 3.5528155,14.68532 2.5914485,11.204007 3.9024034,9.7401071 4.8637703,13.221421"
       id="path6"
       inkscape:connector-curvature="0"
       style="fill:#000000;fill-opacity:1;stroke-width:0.07283083" /><path
       d="M 7.7770034,10.308188 6.4660485,11.772087 5.5046816,8.2907737 6.8156365,6.826874 7.7770034,10.308188"
       id="path8"
       inkscape:connector-curvature="0"
       style="fill:#000000;fill-opacity:1;stroke-width:0.07283083" /><path
       d="M 10.690236,6.6666462 9.3792816,8.1305458 8.4179147,4.6492323 9.7288696,3.1853327 10.690236,6.6666462"
       id="path10"
       inkscape:connector-curvature="0"
       style="fill:#000000;fill-opacity:1;stroke-width:0.07283083" /><path
       d="M 13.60347,3.7534132 12.292515,5.2173128 11.331148,1.7359993 12.642103,0.27938273 13.60347,3.7606962"
       id="path12"
       inkscape:connector-curvature="0"
       style="fill:#000000;fill-opacity:1;stroke-width:0.07283083" /></g><path
     style="fill:#0a0a18;fill-opacity:1;stroke-width:0.07283083"
     inkscape:connector-curvature="0"
     id="path14"
     d="m 3.4071538,14.678037 4.2606034,8.521207 c 0.3109876,0.620518 1.06333,0.87397 1.6896751,0.560069 L 21.811504,17.532277 c 0.621247,-0.311716 0.87397,-1.06333 0.560797,-1.689675 L 18.111698,7.3213954 3.3998707,14.677309" /><path
     d="m 4.1354621,16.862962 c -0.015294,0 -0.031317,-0.0024 -0.045883,-0.0075 -0.037144,-0.01224 -0.067733,-0.03867 -0.085212,-0.07283 L 2.9337534,14.641403 c -0.036415,-0.07225 -0.00728,-0.160228 0.06482,-0.196643 L 17.637569,7.0888465 c 0.02039,-0.010488 0.04297,-0.015586 0.06555,-0.015586 0.01529,0 0.03059,0.0024 0.04588,0.0075 0.03714,0.012308 0.06701,0.038673 0.08448,0.072831 l 1.070613,2.1412263 c 0.03569,0.072248 0.0066,0.1602279 -0.06555,0.1966433 L 4.1995532,16.847376 c -0.020393,0.01041 -0.04297,0.01551 -0.065548,0.01551"
     id="path18"
     inkscape:connector-curvature="0"
     style="fill:#ffffff;stroke-width:0.07283083" /><path
     style="fill:#0a0a18;fill-opacity:1;stroke-width:0.07283083"
     inkscape:connector-curvature="0"
     id="path20"
     d="m 17.973319,6.6666462 c -0.04516,0 -0.09031,0.010488 -0.131824,0.03088 L 3.2024992,14.05344 C 3.0582941,14.12605 3.0000295,14.301793 3.072132,14.446726 l 1.0706132,2.141227 c 0.034959,0.06963 0.095408,0.122356 0.1689675,0.147118 0.030589,0.0102 0.061906,0.01493 0.092495,0.01493 0.045155,0 0.09031,-0.01049 0.1310955,-0.03117 L 19.174299,9.3629163 c 0.144934,-0.072321 0.203198,-0.2483532 0.130368,-0.3925582 L 18.234053,6.8291318 c -0.03496,-0.069626 -0.09541,-0.1223558 -0.169695,-0.14639 -0.02986,-0.010196 -0.06118,-0.015003 -0.09177,-0.015003 z m 0,0.2927799 1.070613,2.1412264 L 4.4049361,16.456566 3.334323,14.31534 17.973319,6.9594261" /><path
     style="fill:#0a0a18;fill-opacity:1;stroke-width:0.07283083"
     inkscape:connector-curvature="0"
     id="path22"
     d="M 6.3203869,16.134654 4.5068993,17.045039 5.1303312,13.774935 6.9438187,12.86455 6.3218435,16.134654" /><path
     style="fill:#0a0a18;fill-opacity:1;stroke-width:0.07283083"
     inkscape:connector-curvature="0"
     id="path24"
     d="M 9.9619282,13.949729 8.1484406,14.860114 8.7718725,11.59001 10.58536,10.679625 9.9626565,13.949729" /><path
     style="fill:#0a0a18;fill-opacity:1;stroke-width:0.07283083"
     inkscape:connector-curvature="0"
     id="path26"
     d="M 13.60347,11.764804 11.789982,12.675189 12.414142,9.4050853 14.22763,8.4947 13.604198,11.764804" /><path
     style="fill:#0a0a18;fill-opacity:1;stroke-width:0.07283083"
     inkscape:connector-curvature="0"
     id="path28"
     d="m 17.245011,10.308188 -1.813488,0.910385 0.62416,-3.2701042 1.813488,-0.9103854 -0.62416,3.2701046" /><path
     d="m 18.701627,16.862962 -7.501575,3.743504 -2.2140569,-4.420831 7.5015749,-3.743504 2.214057,4.420831"
     id="path32"
     inkscape:connector-curvature="0"
     style="fill:#ffffff;stroke-width:0.07283083" /></svg>