<?xml version="1.0" encoding="UTF-8"?>
<svg width="383" height="429" version="1.1" viewBox="0 0 383.41531 428.96448" xml:space="preserve" xmlns="http://www.w3.org/2000/svg"><g transform="matrix(1.33 0 0 -1.33 -1.84e3 2.14e3)"><g><path d="m1.41e3 1.41e3c-3.16 0-6.19 1.16-8.55 3.27l-13.1 11.8c-2.55 2.27-4.06 5.41-4.25 8.82-0.2 3.43 0.96 6.73 3.25 9.28l140 156c2.43 2.71 5.91 4.27 9.55 4.27 3.17 0 6.21-1.16 8.57-3.27l13.1-11.8c2.56-2.29 4.07-5.44 4.26-8.87 0.18-3.42-0.98-6.7-3.26-9.24l-140-156c-2.43-2.71-5.92-4.27-9.57-4.27" fill="#fff"/><g fill="#4747a5"><path d="m1.54e3 1.61e3c-4.21 0-8.24-1.8-11-4.94l-140-156c-2.66-2.96-3.99-6.78-3.77-10.7 0.22-3.95 1.97-7.58 4.92-10.2l13.1-11.7c2.73-2.44 6.24-3.78 9.89-3.78 4.22 0 8.25 1.8 11.1 4.94l140 156c2.64 2.94 3.98 6.74 3.76 10.7-0.21 3.96-1.96 7.6-4.92 10.3l-13.1 11.7c-2.73 2.45-6.25 3.79-9.91 3.79zm0-4.02c2.58 0 5.16-0.914 7.23-2.76l13.1-11.7c4.46-4 4.83-10.8 0.84-15.3l-140-156c-2.14-2.39-5.1-3.6-8.07-3.6-2.57 0-5.14 0.911-7.21 2.76l-13.1 11.8c-4.46 3.98-4.83 10.8-0.84 15.3l140 156c2.13 2.39 5.08 3.6 8.05 3.6"/><path d="m1.43e3 1.43e3 -18-20.1-13.2 47.8 18 20.1 13.2-47.8"/><path d="m1.47e3 1.47e3 -18-20.1-13.2 47.8 18 20.1 13.2-47.8"/><path d="m1.51e3 1.52e3 -18-20.1-13.2 47.8 18 20.1 13.2-47.8"/><path d="m1.55e3 1.56e3 -18-20.1-13.2 47.8 18 20 13.2-47.8"/><path d="m1.41e3 1.41e3 58.5-117c4.27-8.52 14.6-12 23.2-7.69l171 85.5c8.53 4.28 12 14.6 7.7 23.2l-58.5 117-202-101"/></g><path d="m1.42e3 1.38e3c-0.21 0-0.43 0.033-0.63 0.103-0.51 0.168-0.93 0.531-1.17 1l-14.7 29.4c-0.5 0.992-0.1 2.2 0.89 2.7l201 101c0.28 0.144 0.59 0.214 0.9 0.214 0.21 0 0.42-0.033 0.63-0.103 0.51-0.169 0.92-0.531 1.16-1l14.7-29.4c0.49-0.992 0.09-2.2-0.9-2.7l-201-101c-0.28-0.143-0.59-0.213-0.9-0.213" fill="#fff"/><g fill="#4747a5"><path d="m1.61e3 1.52e3c-0.62 0-1.24-0.144-1.81-0.424l-201-101c-1.98-0.997-2.78-3.41-1.79-5.4l14.7-29.4c0.48-0.956 1.31-1.68 2.32-2.02 0.42-0.14 0.85-0.205 1.27-0.205 0.62 0 1.24 0.144 1.8 0.428l201 101c1.99 0.993 2.79 3.41 1.79 5.39l-14.7 29.4c-0.48 0.956-1.31 1.68-2.33 2.01-0.41 0.14-0.84 0.206-1.26 0.206zm0-4.02 14.7-29.4-201-101-14.7 29.4 201 101"/><path d="m1.45e3 1.39e3 -24.9-12.5 8.56 44.9 24.9 12.5-8.54-44.9"/><path d="m1.5e3 1.42e3 -24.9-12.5 8.56 44.9 24.9 12.5-8.55-44.9"/><path d="m1.55e3 1.45e3 -24.9-12.5 8.57 44.9 24.9 12.5-8.56-44.9"/><path d="m1.6e3 1.47e3 -24.9-12.5 8.57 44.9 24.9 12.5-8.57-44.9"/></g><path d="m1.62e3 1.38e3 -103-51.4-30.4 60.7 103 51.4 30.4-60.7" fill="#fff"/></g></g></svg>
