<?xml version="1.0" encoding="UTF-8" standalone="no"?>
<svg
   xmlns:dc="http://purl.org/dc/elements/1.1/"
   xmlns:cc="http://creativecommons.org/ns#"
   xmlns:rdf="http://www.w3.org/1999/02/22-rdf-syntax-ns#"
   xmlns:svg="http://www.w3.org/2000/svg"
   xmlns="http://www.w3.org/2000/svg"
   xmlns:xlink="http://www.w3.org/1999/xlink"
   xmlns:sodipodi="http://sodipodi.sourceforge.net/DTD/sodipodi-0.dtd"
   xmlns:inkscape="http://www.inkscape.org/namespaces/inkscape"
   width="290.16016"
   height="85.314476"
   version="1.1"
   viewBox="0 0 290.47479 85.307411"
   xml:space="preserve"
   id="svg38"
   sodipodi:docname="logo.svg"
   inkscape:version="0.92.2 5c3e80d, 2017-08-06"><metadata
     id="metadata44"><rdf:RDF><cc:Work
         rdf:about=""><dc:format>image/svg+xml</dc:format><dc:type
           rdf:resource="http://purl.org/dc/dcmitype/StillImage" /><dc:title></dc:title></cc:Work></rdf:RDF></metadata><defs
     id="defs42"><linearGradient
       inkscape:collect="always"
       id="linearGradient859"><stop
         style="stop-color:#435e9b;stop-opacity:1"
         offset="0"
         id="stop855" /><stop
         style="stop-color:#9e4f95;stop-opacity:1"
         offset="1"
         id="stop857" /></linearGradient><linearGradient
       inkscape:collect="always"
       xlink:href="#linearGradient859"
       id="linearGradient861"
       x1="30.846041"
       y1="-315.71518"
       x2="576.52759"
       y2="-315.71518"
       gradientUnits="userSpaceOnUse" /></defs><sodipodi:namedview
     pagecolor="#ffffff"
     bordercolor="#666666"
     borderopacity="1"
     objecttolerance="10"
     gridtolerance="10"
     guidetolerance="10"
     inkscape:pageopacity="0"
     inkscape:pageshadow="2"
     inkscape:window-width="1442"
     inkscape:window-height="862"
     id="namedview40"
     showgrid="false"
     inkscape:snap-global="false"
     fit-margin-top="0"
     fit-margin-left="0"
     fit-margin-right="0"
     fit-margin-bottom="0"
     inkscape:zoom="1.0074671"
     inkscape:cx="309.80321"
     inkscape:cy="12.983066"
     inkscape:window-x="0"
     inkscape:window-y="0"
     inkscape:window-maximized="0"
     inkscape:current-layer="svg38" /><g
     id="g891"
     transform="matrix(0.36859728,0,0,0.36859728,52.015794,164.65413)"><g
       id="g36"
       transform="matrix(0.65430205,0,0,-0.65430205,-1046.7232,624.40656)"><g
         id="g34"><path
           style="fill:#ffffff"
           inkscape:connector-curvature="0"
           id="path2"
           d="m 1410,1410 c -3.16,0 -6.19,1.16 -8.55,3.27 l -13.1,11.8 c -2.55,2.27 -4.06,5.41 -4.25,8.82 -0.2,3.43 0.96,6.73 3.25,9.28 l 140,156 c 2.43,2.71 5.91,4.27 9.55,4.27 3.17,0 6.21,-1.16 8.57,-3.27 l 13.1,-11.8 c 2.56,-2.29 4.07,-5.44 4.26,-8.87 0.18,-3.42 -0.98,-6.7 -3.26,-9.24 l -140,-156 c -2.43,-2.71 -5.92,-4.27 -9.57,-4.27" /><g
           style="fill:#4747a5"
           id="g16"><path
             inkscape:connector-curvature="0"
             id="path4"
             d="m 1540,1610 c -4.21,0 -8.24,-1.8 -11,-4.94 l -140,-156 c -2.66,-2.96 -3.99,-6.78 -3.77,-10.7 0.22,-3.95 1.97,-7.58 4.92,-10.2 l 13.1,-11.7 c 2.73,-2.44 6.24,-3.78 9.89,-3.78 4.22,0 8.25,1.8 11.1,4.94 l 140,156 c 2.64,2.94 3.98,6.74 3.76,10.7 -0.21,3.96 -1.96,7.6 -4.92,10.3 l -13.1,11.7 c -2.73,2.45 -6.25,3.79 -9.91,3.79 z m 0,-4.02 c 2.58,0 5.16,-0.914 7.23,-2.76 l 13.1,-11.7 c 4.46,-4 4.83,-10.8 0.84,-15.3 l -140,-156 c -2.14,-2.39 -5.1,-3.6 -8.07,-3.6 -2.57,0 -5.14,0.911 -7.21,2.76 l -13.1,11.8 c -4.46,3.98 -4.83,10.8 -0.84,15.3 l 140,156 c 2.13,2.39 5.08,3.6 8.05,3.6" /><path
             inkscape:connector-curvature="0"
             id="path6"
             d="m 1430,1430 -18,-20.1 -13.2,47.8 18,20.1 13.2,-47.8" /><path
             inkscape:connector-curvature="0"
             id="path8"
             d="m 1470,1470 -18,-20.1 -13.2,47.8 18,20.1 13.2,-47.8" /><path
             inkscape:connector-curvature="0"
             id="path10"
             d="m 1510,1520 -18,-20.1 -13.2,47.8 18,20.1 13.2,-47.8" /><path
             inkscape:connector-curvature="0"
             id="path12"
             d="m 1550,1560 -18,-20.1 -13.2,47.8 18,20 13.2,-47.8" /><path
             inkscape:connector-curvature="0"
             id="path14"
             d="m 1410,1410 58.5,-117 c 4.27,-8.52 14.6,-12 23.2,-7.69 l 171,85.5 c 8.53,4.28 12,14.6 7.7,23.2 l -58.5,117 -202,-101" /></g><path
           style="fill:#ffffff"
           inkscape:connector-curvature="0"
           id="path18"
           d="m 1420,1380 c -0.21,0 -0.43,0.033 -0.63,0.103 -0.51,0.168 -0.93,0.531 -1.17,1 l -14.7,29.4 c -0.5,0.992 -0.1,2.2 0.89,2.7 l 201,101 c 0.28,0.144 0.59,0.214 0.9,0.214 0.21,0 0.42,-0.033 0.63,-0.103 0.51,-0.169 0.92,-0.531 1.16,-1 l 14.7,-29.4 c 0.49,-0.992 0.09,-2.2 -0.9,-2.7 l -201,-101 c -0.28,-0.143 -0.59,-0.213 -0.9,-0.213" /><g
           style="fill:#4747a5"
           id="g30"><path
             inkscape:connector-curvature="0"
             id="path20"
             d="m 1610,1520 c -0.62,0 -1.24,-0.144 -1.81,-0.424 l -201,-101 c -1.98,-0.997 -2.78,-3.41 -1.79,-5.4 l 14.7,-29.4 c 0.48,-0.956 1.31,-1.68 2.32,-2.02 0.42,-0.14 0.85,-0.205 1.27,-0.205 0.62,0 1.24,0.144 1.8,0.428 l 201,101 c 1.99,0.993 2.79,3.41 1.79,5.39 l -14.7,29.4 c -0.48,0.956 -1.31,1.68 -2.33,2.01 -0.41,0.14 -0.84,0.206 -1.26,0.206 z m 0,-4.02 14.7,-29.4 -201,-101 -14.7,29.4 201,101" /><path
             inkscape:connector-curvature="0"
             id="path22"
             d="m 1450,1390 -24.9,-12.5 8.56,44.9 24.9,12.5 -8.54,-44.9" /><path
             inkscape:connector-curvature="0"
             id="path24"
             d="m 1500,1420 -24.9,-12.5 8.56,44.9 24.9,12.5 -8.55,-44.9" /><path
             inkscape:connector-curvature="0"
             id="path26"
             d="m 1550,1450 -24.9,-12.5 8.57,44.9 24.9,12.5 -8.56,-44.9" /><path
             inkscape:connector-curvature="0"
             id="path28"
             d="m 1600,1470 -24.9,-12.5 8.57,44.9 24.9,12.5 -8.57,-44.9" /></g><path
           style="fill:#ffffff"
           inkscape:connector-curvature="0"
           id="path32"
           d="m 1620,1380 -103,-51.4 -30.4,60.7 103,51.4 30.4,-60.7" /></g></g><text
       id="text853"
       y="-252.21333"
       x="44.353111"
       style="font-style:normal;font-weight:normal;font-size:211.81074524px;line-height:1.25;font-family:sans-serif;letter-spacing:0px;word-spacing:0px;fill:url(#linearGradient861);fill-opacity:1;stroke:#ffffff;stroke-width:5.29526901;stroke-opacity:1"
       xml:space="preserve"><tspan
         style="font-style:normal;font-variant:normal;font-weight:normal;font-stretch:normal;font-size:211.81072998px;font-family:'Lemon Juice';-inkscape-font-specification:'Lemon Juice, Normal';font-variant-ligatures:normal;font-variant-caps:normal;font-variant-numeric:normal;font-feature-settings:normal;text-align:start;writing-mode:lr-tb;text-anchor:start;fill:url(#linearGradient861);fill-opacity:1;stroke:#ffffff;stroke-width:5.29526901;stroke-opacity:1"
         y="-252.21333"
         x="44.353111"
         id="tspan851"
         sodipodi:role="line">timelapse</tspan></text>
<path
       inkscape:transform-center-y="-2.6406883e-05"
       inkscape:transform-center-x="-3.3906891e-06"
       d="m 627.42175,-369.32391 -20.05959,-27.51762 -12.07179,32.2989 5.27363,-33.64216 -31.37482,14.30273 27.51761,-20.05958 -32.2989,-12.07179 33.64216,5.27362 -14.30273,-31.37481 20.05958,27.51761 12.07179,-32.2989 -5.27362,33.64216 31.37482,-14.30273 -27.51762,20.05958 32.29891,12.07179 -33.64216,-5.27362 z"
       inkscape:randomized="0"
       inkscape:rounded="0"
       inkscape:flatsided="false"
       sodipodi:arg2="1.3731754"
       sodipodi:arg1="1.0303768"
       sodipodi:r2="9.0539618"
       sodipodi:r1="42.443913"
       sodipodi:cy="-405.71927"
       sodipodi:cx="605.58453"
       sodipodi:sides="8"
       id="path865"
       style="fill:#935196;fill-opacity:1;stroke:#ffffff;stroke-width:1.00108445;stroke-linecap:square;stroke-linejoin:miter;stroke-opacity:1"
       sodipodi:type="star" /><path
       transform="rotate(-30,718.71782,-546.51771)"
       sodipodi:type="star"
       style="fill:#935196;fill-opacity:1;stroke:#ffffff;stroke-width:0.55795884;stroke-linecap:square;stroke-linejoin:miter;stroke-opacity:1"
       id="path867"
       sodipodi:sides="8"
       sodipodi:cx="512.98669"
       sodipodi:cy="-432.63724"
       sodipodi:r1="23.656301"
       sodipodi:r2="5.0462656"
       sodipodi:arg1="1.0303768"
       sodipodi:arg2="1.3731754"
       inkscape:flatsided="false"
       inkscape:rounded="0"
       inkscape:randomized="0"
       d="m 525.15776,-412.35213 -11.1803,-15.33706 -6.72826,18.00194 2.93928,-18.75061 -17.4869,7.97169 15.33707,-11.1803 -18.00194,-6.72826 18.75061,2.93927 -7.97169,-17.48689 11.1803,15.33707 6.72826,-18.00194 -2.93928,18.7506 17.4869,-7.97168 -15.33707,11.18029 18.00194,6.72827 -18.75061,-2.93928 z"
       inkscape:transform-center-x="-1.7190212e-05"
       inkscape:transform-center-y="-3.1377489e-05" /></g></svg>