<?xml version="1.0" encoding="UTF-8" standalone="no"?>
<svg
   xmlns:dc="http://purl.org/dc/elements/1.1/"
   xmlns:cc="http://creativecommons.org/ns#"
   xmlns:rdf="http://www.w3.org/1999/02/22-rdf-syntax-ns#"
   xmlns:svg="http://www.w3.org/2000/svg"
   xmlns="http://www.w3.org/2000/svg"
   xmlns:sodipodi="http://sodipodi.sourceforge.net/DTD/sodipodi-0.dtd"
   xmlns:inkscape="http://www.inkscape.org/namespaces/inkscape"
   width="24"
   height="24"
   version="1.1"
   viewBox="0 0 24.026024 23.998014"
   xml:space="preserve"
   id="svg38"
   sodipodi:docname="idle.svg"
   inkscape:version="0.92.2 5c3e80d, 2017-08-06"
   inkscape:export-filename="/Users/mendler/Code/private/timelapse/timelapse/resources/white/idle.png"
   inkscape:export-xdpi="140"
   inkscape:export-ydpi="140"><metadata
     id="metadata44"><rdf:RDF><cc:Work
         rdf:about=""><dc:format>image/svg+xml</dc:format><dc:type
           rdf:resource="http://purl.org/dc/dcmitype/StillImage" /><dc:title></dc:title></cc:Work></rdf:RDF></metadata><defs
     id="defs42" /><sodipodi:namedview
     pagecolor="#000000"
     bordercolor="#666666"
     borderopacity="1"
     objecttolerance="10"
     gridtolerance="10"
     guidetolerance="10"
     inkscape:pageopacity="0"
     inkscape:pageshadow="2"
     inkscape:window-width="1450"
     inkscape:window-height="861"
     id="namedview40"
     showgrid="false"
     inkscape:zoom="14.999877"
     inkscape:cx="6.7961251"
     inkscape:cy="19.674341"
     inkscape:window-x="0"
     inkscape:window-y="0"
     inkscape:window-maximized="0"
     inkscape:current-layer="svg38"
     fit-margin-top="0"
     fit-margin-left="0"
     fit-margin-right="0"
     fit-margin-bottom="0" /><g
     id="g1016"
     transform="matrix(0.18783664,0,0,0.18783664,1.4930009,0.0763302)"
     inkscape:export-xdpi="140"
     inkscape:export-ydpi="140"><path
       style="fill:#080808;fill-opacity:1;stroke-width:0.38870379"
       inkscape:connector-curvature="0"
       id="path2"
       d="m 10.076038,77.771844 c -1.2283033,0 -2.4060763,-0.450896 -3.3234173,-1.271061 L 1.6606013,71.914079 C 0.66940667,71.031721 0.08246397,69.811192 0.00861027,68.485712 -0.06913073,67.152457 0.38176587,65.869734 1.2718976,64.87854 L 55.690427,4.2407485 c 0.94455,-1.05338 2.297239,-1.65976 3.712121,-1.65976 1.232191,0 2.41385,0.45089 3.331191,1.27106 l 5.09202,4.586703 c 0.995081,0.890132 1.582024,2.1145495 1.655878,3.4478035 0.06997,1.329365 -0.38093,2.604315 -1.267174,3.591622 L 13.795934,76.115966 c -0.944551,1.053387 -2.301127,1.659765 -3.719896,1.659765" /><path
       d="m 60.60753,0.0310885 c -1.636443,0 -3.202919,0.69967 -4.275742,1.9202 L 1.9132588,62.589075 c -1.03395213,1.150564 -1.55092813,2.635412 -1.46541323,4.159131 0.085515,1.53538 0.76574643,2.946374 1.91242213,3.964778 l 5.09202,4.547834 c 1.061161,0.948437 2.425512,1.469301 3.8442803,1.469301 1.64033,0 3.206806,-0.699668 4.314612,-1.920197 L 70.029709,14.172133 c 1.026178,-1.142789 1.547041,-2.619864 1.461526,-4.159131 -0.08163,-1.5392665 -0.761859,-2.9541535 -1.912422,-4.0036535 l -5.09202,-4.54783 c -1.061161,-0.95232 -2.429398,-1.47319 -3.852054,-1.47319 z m 0,1.56259 c 1.002855,0 2.005711,0.35527 2.810328,1.07282 l 5.092019,4.54784 c 1.733619,1.554811 1.87744,4.1979965 0.326512,5.9471635 L 14.41786,73.799291 c -0.831826,0.929002 -1.98239,1.399334 -3.13684,1.399334 -0.998969,0 -1.9979373,-0.354109 -2.8025543,-1.072822 l -5.09202,-4.586705 C 1.6528273,67.992057 1.5090069,65.341097 3.0599347,63.59193 L 57.478464,2.9541385 c 0.827939,-0.929 1.974615,-1.39933 3.129066,-1.39933"
       id="path4"
       inkscape:connector-curvature="0"
       style="fill:#f8f8f8;fill-opacity:1;stroke:none;stroke-width:0.38870379;stroke-opacity:1" /><path
       d="m 17.850114,69.997769 -6.996668,7.812946 -5.1308903,-18.58004 6.9966683,-7.812946 5.13089,18.58004"
       id="path6"
       inkscape:connector-curvature="0"
       style="fill:#fdfdfd;fill-opacity:1;stroke-width:0.38870379" /><path
       d="m 33.398265,54.449618 -6.996668,7.812946 -5.13089,-18.58004 6.996668,-7.812946 5.13089,18.58004"
       id="path8"
       inkscape:connector-curvature="0"
       style="fill:#fdfdfd;fill-opacity:1;stroke-width:0.38870379" /><path
       d="m 48.946416,35.014429 -6.996668,7.812946 -5.13089,-18.58004 6.996668,-7.812946 5.13089,18.58004"
       id="path10"
       inkscape:connector-curvature="0"
       style="fill:#fdfdfd;fill-opacity:1;stroke-width:0.38870379" /><path
       d="M 64.494567,19.466278 57.497899,27.279224 52.36701,8.6991835 59.363678,0.9251085 64.494567,19.505149"
       id="path12"
       inkscape:connector-curvature="0"
       style="fill:#fdfdfd;fill-opacity:1;stroke-width:0.38870379" /><path
       d="m 10.076038,77.771844 22.739171,45.478346 c 1.659766,3.31175 5.675076,4.66444 9.017928,2.98913 L 108.30148,93.005145 c 3.31564,-1.663651 4.66444,-5.675074 2.99302,-9.017928 L 88.555331,38.508876 10.037168,77.767957"
       id="path14"
       inkscape:connector-curvature="0"
       style="fill:#ffffff;fill-opacity:1;stroke-width:0.38870379" /><path
       style="fill:#000000;fill-opacity:1;stroke-width:0.38870379"
       inkscape:connector-curvature="0"
       id="path18"
       d="m 13.963076,89.432957 c -0.08163,0 -0.167142,-0.01283 -0.244883,-0.04004 -0.198239,-0.0653 -0.361495,-0.206402 -0.454784,-0.388704 L 7.5494637,77.576326 c -0.194352,-0.385594 -0.03887,-0.855148 0.345946,-1.0495 L 86.02487,37.267745 c 0.108837,-0.05597 0.229335,-0.08318 0.349833,-0.08318 0.08163,0 0.163256,0.01283 0.244883,0.04004 0.198239,0.06569 0.357608,0.206402 0.450897,0.388704 L 92.784425,49.0412 c 0.19047,0.385594 0.035,0.855148 -0.34983,1.0495 L 14.305136,89.349776 c -0.108838,0.05558 -0.229336,0.08279 -0.349834,0.08279" /><path
       d="m 87.816794,35.014429 c -0.240996,0 -0.481993,0.05597 -0.703554,0.164811 L 8.9837807,74.438321 c -0.769634,0.387538 -1.080597,1.32548 -0.69578,2.099001 l 5.7139463,11.427891 c 0.186577,0.371601 0.509202,0.653021 0.901792,0.785181 0.163256,0.05442 0.330399,0.07968 0.493654,0.07968 0.240997,0 0.481993,-0.05597 0.699667,-0.166364 L 94.226515,49.404632 c 0.77352,-0.385983 1.08449,-1.32548 0.69578,-2.095113 L 89.208354,35.881627 c -0.186578,-0.3716 -0.509202,-0.653022 -0.90568,-0.781294 -0.159369,-0.05442 -0.326511,-0.08007 -0.489767,-0.08007 z m 0,1.56259 L 93.530735,48.00491 15.40128,87.263991 9.6873347,75.8361 87.816794,36.577019"
       id="path20"
       inkscape:connector-curvature="0"
       style="fill:#ffffff;fill-opacity:1;stroke-width:0.38870379" /><path
       d="m 25.62419,85.54592 -9.678725,4.858798 3.327305,-17.4528 9.678724,-4.858798 -3.31953,17.4528"
       id="path22"
       inkscape:connector-curvature="0"
       style="fill:#fdfdfd;fill-opacity:1;stroke-width:0.38870379" /><path
       d="m 45.059378,73.884806 -9.678724,4.858798 3.327305,-17.4528 9.678724,-4.858797 -3.323417,17.452799"
       id="path24"
       inkscape:connector-curvature="0"
       style="fill:#fdfdfd;fill-opacity:1;stroke-width:0.38870379" /><path
       d="m 64.494567,62.223694 -9.678724,4.858797 3.331192,-17.4528 9.678724,-4.858798 -3.327305,17.452801"
       id="path26"
       inkscape:connector-curvature="0"
       style="fill:#fdfdfd;fill-opacity:1;stroke-width:0.38870379" /><path
       d="m 83.929756,54.449618 -9.678724,4.858797 3.331192,-17.452799 9.678724,-4.858797 -3.331192,17.452799"
       id="path28"
       inkscape:connector-curvature="0"
       style="fill:#fdfdfd;fill-opacity:1;stroke-width:0.38870379" /><path
       style="fill:#020200;fill-opacity:1;stroke-width:0.38870379"
       inkscape:connector-curvature="0"
       id="path32"
       d="M 91.703832,89.432957 51.667343,109.41233 39.850748,85.818013 79.887237,65.838639 91.703832,89.432957" /></g></svg>