<?xml version="1.0" encoding="UTF-8" standalone="no"?>
<svg
   xmlns:dc="http://purl.org/dc/elements/1.1/"
   xmlns:cc="http://creativecommons.org/ns#"
   xmlns:rdf="http://www.w3.org/1999/02/22-rdf-syntax-ns#"
   xmlns:svg="http://www.w3.org/2000/svg"
   xmlns="http://www.w3.org/2000/svg"
   xmlns:sodipodi="http://sodipodi.sourceforge.net/DTD/sodipodi-0.dtd"
   xmlns:inkscape="http://www.inkscape.org/namespaces/inkscape"
   width="24"
   height="24"
   version="1.1"
   viewBox="0 0 24.026024 23.998014"
   xml:space="preserve"
   id="svg38"
   sodipodi:docname="recording.svg"
   inkscape:version="0.92.2 5c3e80d, 2017-08-06"
   inkscape:export-filename="/Users/mendler/Code/private/timelapse/timelapse/resources/white/recording.png"
   inkscape:export-xdpi="140"
   inkscape:export-ydpi="140"><metadata
     id="metadata44"><rdf:RDF><cc:Work
         rdf:about=""><dc:format>image/svg+xml</dc:format><dc:type
           rdf:resource="http://purl.org/dc/dcmitype/StillImage" /><dc:title /></cc:Work></rdf:RDF></metadata><defs
     id="defs42" /><sodipodi:namedview
     pagecolor="#000000"
     bordercolor="#666666"
     borderopacity="1"
     objecttolerance="10"
     gridtolerance="10"
     guidetolerance="10"
     inkscape:pageopacity="0"
     inkscape:pageshadow="2"
     inkscape:window-width="1440"
     inkscape:window-height="856"
     id="namedview40"
     showgrid="false"
     inkscape:zoom="14.999877"
     inkscape:cx="-4.637302"
     inkscape:cy="19.674341"
     inkscape:window-x="0"
     inkscape:window-y="0"
     inkscape:window-maximized="0"
     inkscape:current-layer="svg38"
     fit-margin-top="0"
     fit-margin-left="0"
     fit-margin-right="0"
     fit-margin-bottom="0"
     inkscape:snap-global="false" /><path
     d="M 2.8223546,13.502148 C 2.6060122,13.421974 2.4279988,13.265686 2.3199619,13.061349 L 1.7224816,11.921121 C 1.6054944,11.701014 1.5817818,11.44773 1.6552905,11.209451 1.7286219,10.969549 1.8917645,10.773052 2.1132418,10.656572 L 15.655984,3.5283691 c 0.235121,-0.1238805 0.512951,-0.1423905 0.762156,-0.050038 0.217027,0.080428 0.395723,0.2369722 0.503762,0.4413065 l 0.59748,1.1402271 c 0.117164,0.2217306 0.140623,0.4756998 0.06661,0.7153478 -0.07445,0.2387086 -0.23708,0.4338378 -0.457621,0.5498856 L 3.5856263,13.453301 c -0.2351212,0.123881 -0.5136359,0.142137 -0.7635253,0.04953"
     id="path2"
     inkscape:connector-curvature="0"
     style="fill:#080808;fill-opacity:1;stroke-width:0.07301281" /><g
     id="g845"
     transform="rotate(20.94677,5.7008883,11.774556)"><path
       d="m 12.877316,0.08216976 c -0.307384,0 -0.601626,0.13142366 -0.803141,0.36068392 L 1.852381,11.832852 c -0.1942141,0.216118 -0.2913211,0.495027 -0.2752583,0.781237 0.016063,0.288401 0.1438352,0.553437 0.359223,0.744731 l 0.9564679,0.854249 c 0.1993249,0.178152 0.4556,0.275989 0.7220967,0.275989 0.3081141,0 0.6023556,-0.131423 0.8104422,-0.360683 L 14.647146,2.738376 C 14.8399,2.5237184 14.937737,2.2462696 14.921674,1.9571389 14.906341,1.6680082 14.778569,1.4022406 14.562451,1.205106 L 13.605983,0.35085692 C 13.406659,0.17197634 13.149653,0.07413786 12.882427,0.07413786 Z m 0,0.29351165 c 0.188373,0 0.376746,0.0667327 0.527882,0.20151491 l 0.956468,0.85425098 c 0.325637,0.2920505 0.352652,0.7885376 0.06133,1.1170952 L 4.2012033,13.938541 c -0.1562474,0.174501 -0.3723655,0.262846 -0.5892135,0.262846 -0.187643,0 -0.3752858,-0.06651 -0.5264224,-0.201515 L 2.1290995,13.138321 C 1.8034624,12.84773 1.7764477,12.349782 2.0677688,12.021225 L 12.289562,0.63122565 C 12.44508,0.45672541 12.660467,0.3683802 12.877316,0.3683802"
       id="path4"
       inkscape:connector-curvature="0"
       style="fill:#f8f8f8;fill-opacity:1;stroke:none;stroke-width:0.07301281;stroke-opacity:1" /><path
       d="M 4.8459063,13.224476 3.5316757,14.692033 2.5679065,11.202021 3.8821372,9.7344637 4.8459063,13.224476"
       id="path6"
       inkscape:connector-curvature="0"
       style="fill:#fdfdfd;fill-opacity:1;stroke-width:0.07301281" /><path
       d="M 7.7664188,10.303963 6.4521882,11.771521 5.488419,8.2815087 6.8026496,6.8139512 7.7664188,10.303963"
       id="path8"
       inkscape:connector-curvature="0"
       style="fill:#fdfdfd;fill-opacity:1;stroke-width:0.07301281" /><path
       d="M 10.686931,6.6533229 9.3727006,8.1208804 8.4089315,4.6308681 9.7231621,3.1633106 10.686931,6.6533229"
       id="path10"
       inkscape:connector-curvature="0"
       style="fill:#fdfdfd;fill-opacity:1;stroke-width:0.07301281" /><path
       d="M 13.607444,3.7328105 12.293213,5.200368 11.329444,1.7103556 12.643675,0.25009947 13.607444,3.7401119"
       id="path12"
       inkscape:connector-curvature="0"
       style="fill:#fdfdfd;fill-opacity:1;stroke-width:0.07301281" /></g><path
     style="fill:#ffffff;fill-opacity:1;stroke-width:0.07301281"
     inkscape:connector-curvature="0"
     id="path14"
     d="m 3.38565,14.684732 4.2712495,8.5425 C 7.9686644,23.8493 8.7228867,24.103385 9.3507968,23.7887 L 21.835987,17.546104 c 0.622799,-0.312494 0.876153,-1.065987 0.562199,-1.693897 L 18.126937,7.3097081 3.3783488,14.684002" /><path
     d="m 4.1157782,16.875116 c -0.015333,0 -0.031395,-0.0024 -0.045998,-0.0075 -0.037237,-0.01227 -0.067902,-0.03877 -0.085425,-0.07301 L 2.9110668,14.648007 c -0.036506,-0.07243 -0.0073,-0.160629 0.064981,-0.197135 L 17.651623,7.0765782 c 0.02044,-0.010513 0.04308,-0.015624 0.06571,-0.015624 0.01533,0 0.03067,0.00241 0.046,0.00752 0.03724,0.012339 0.06717,0.03877 0.08469,0.073013 l 1.073288,2.1465766 c 0.03578,0.072429 0.0066,0.1606282 -0.06571,0.1971346 L 4.1800296,16.859492 c -0.020444,0.01044 -0.043078,0.01555 -0.065712,0.01555"
     id="path18"
     inkscape:connector-curvature="0"
     style="fill:#000000;fill-opacity:1;stroke-width:0.07301281" /><path
     style="fill:#ffffff;fill-opacity:1;stroke-width:0.07301281"
     inkscape:connector-curvature="0"
     id="path20"
     d="m 17.988212,6.6533229 c -0.04527,0 -0.09054,0.010513 -0.132153,0.030957 L 3.1804841,14.058574 c -0.1445655,0.07279 -0.2029757,0.248974 -0.130693,0.39427 l 1.0732885,2.146576 c 0.035046,0.0698 0.095647,0.122662 0.1693896,0.147486 0.030665,0.01022 0.062061,0.01497 0.092726,0.01497 0.045268,0 0.090536,-0.01051 0.1314231,-0.03125 L 19.192193,9.3563303 C 19.337488,9.2838285 19.3959,9.1073566 19.322886,8.9627913 L 18.249598,6.8162145 c -0.03505,-0.0698 -0.09565,-0.1226615 -0.17012,-0.1467557 -0.02994,-0.010222 -0.06133,-0.01504 -0.092,-0.01504 z m 0,0.2935117 L 19.0615,9.0934112 4.3859256,16.467705 3.3126373,14.321128 17.988212,6.9468346" /><path
     style="fill:#fdfdfd;fill-opacity:1;stroke-width:0.07301281"
     inkscape:connector-curvature="0"
     id="path22"
     d="m 6.3061627,16.144988 -1.8180192,0.912661 0.6249898,-3.278276 1.818019,-0.91266 -0.6235294,3.278275" /><path
     style="fill:#fdfdfd;fill-opacity:1;stroke-width:0.07301281"
     inkscape:connector-curvature="0"
     id="path24"
     d="m 9.9568031,13.954604 -1.818019,0.91266 0.6249898,-3.278275 1.8180191,-0.91266 -0.6242596,3.278275" /><path
     style="fill:#fdfdfd;fill-opacity:1;stroke-width:0.07301281"
     inkscape:connector-curvature="0"
     id="path26"
     d="m 13.607444,11.76422 -1.818019,0.91266 0.62572,-3.2782754 1.818019,-0.9126603 -0.62499,3.2782757" /><path
     style="fill:#fdfdfd;fill-opacity:1;stroke-width:0.07301281"
     inkscape:connector-curvature="0"
     id="path28"
     d="m 17.258084,10.303963 -1.818019,0.912661 0.62572,-3.2782755 1.818019,-0.9126601 -0.62572,3.2782746" /><path
     d="m 18.718341,16.875116 -7.52032,3.752859 -2.2195895,-4.431878 7.5203195,-3.752858 2.21959,4.431877"
     id="path32"
     inkscape:connector-curvature="0"
     style="fill:#020200;fill-opacity:1;stroke-width:0.07301281" /></svg>